# xmcd
#
# Track frame offsets: 
#        150
#        17571
#        38810
#        52379
#        67840
#        94579
#        107595
#
# Disc length: 1651 seconds
#
# Revision: 0
# Processed by: cddbd v1.5.2PL0 Copyright (c) Steve Scherf et al.
# Submitted via: ExactAudioCopy v0.99pb3
#
DISCID=52067107
DTITLE=Mick Mercury And The Meteors - Beer Man
DYEAR=2005
DGENRE=Blues
TTITLE0=Beerman
TTITLE1=Smokey Cafe
TTITLE2=Boogie With Your Baby
TTITLE3=Fancy Hat
TTITLE4=On The Streets
TTITLE5=Shoes By The Door
TTITLE6=Blade Of That Knife
EXTD=
EXTT0=
EXTT1=
EXTT2=
EXTT3=
EXTT4=
EXTT5=
EXTT6=
PLAYORDER=
